HIERARCHY
ROOT Hips
{
  OFFSET -4.35178 90.3298 111.633
  CHANNELS 6 Xposition Yposition Zposition Zrotation Xrotation Yrotation
  JOINT LeftUpLeg
  {
    OFFSET 0.103456 1.85784 10.5485
    CHANNELS 6 Xposition Yposition Zposition Zrotation Xrotation Yrotation
    JOINT LeftLeg
    {
      OFFSET 43.5 -4.2e-05 0
      CHANNELS 6 Xposition Yposition Zposition Zrotation Xrotation Yrotation
      JOINT LeftFoot
      {
        OFFSET 42.3722 1.9e-05 0
        CHANNELS 6 Xposition Yposition Zposition Zrotation Xrotation Yrotation
        JOINT LeftToe
        {
          OFFSET 17.3 0 0
          CHANNELS 6 Xposition Yposition Zposition Zrotation Xrotation Yrotation
          End Site
          {
            OFFSET 0 0 0
          }
        }
      }
    }
  }
  JOINT RightUpLeg
  {
    OFFSET 0.103456 1.85782 -10.5485
    CHANNELS 6 Xposition Yposition Zposition Zrotation Xrotation Yrotation
    JOINT RightLeg
    {
      OFFSET 43.5 -2.7e-05 0
      CHANNELS 6 Xposition Yposition Zposition Zrotation Xrotation Yrotation
      JOINT RightFoot
      {
        OFFSET 42.3723 0 0
        CHANNELS 6 Xposition Yposition Zposition Zrotation Xrotation Yrotation
        JOINT RightToe
        {
          OFFSET 17.3 0 1.7e-05
          CHANNELS 6 Xposition Yposition Zposition Zrotation Xrotation Yrotation
          End Site
          {
            OFFSET 0 0 0
          }
        }
      }
    }
  }
  JOINT Spine
  {
    OFFSET 6.90197 -2.60373 0
    CHANNELS 6 Xposition Yposition Zposition Zrotation Xrotation Yrotation
    JOINT Spine1
    {
      OFFSET 12.5881 0 0
      CHANNELS 6 Xposition Yposition Zposition Zrotation Xrotation Yrotation
      JOINT Spine2
      {
        OFFSET 12.3432 -1.8e-05 0
        CHANNELS 6 Xposition Yposition Zposition Zrotation Xrotation Yrotation
        JOINT Neck
        {
          OFFSET 25.8329 2.3e-05 0
          CHANNELS 6 Xposition Yposition Zposition Zrotation Xrotation Yrotation
          JOINT Head
          {
            OFFSET 11.7666 0 0
            CHANNELS 6 Xposition Yposition Zposition Zrotation Xrotation Yrotation
            End Site
            {
              OFFSET 0 0 0
            }
          }
        }
        JOINT LeftShoulder
        {
          OFFSET 19.7459 -1.48035 6.0001
          CHANNELS 6 Xposition Yposition Zposition Zrotation Xrotation Yrotation
          JOINT LeftArm
          {
            OFFSET 11.2841 1.8e-05 -2e-05
            CHANNELS 6 Xposition Yposition Zposition Zrotation Xrotation Yrotation
            JOINT LeftForeArm
            {
              OFFSET 33 -1.3e-05 1.9e-05
              CHANNELS 6 Xposition Yposition Zposition Zrotation Xrotation Yrotation
              JOINT LeftHand
              {
                OFFSET 25.2 3.2e-05 1.1e-05
                CHANNELS 6 Xposition Yposition Zposition Zrotation Xrotation Yrotation
                End Site
                {
                  OFFSET 0 0 0
                }
              }
            }
          }
        }
        JOINT RightShoulder
        {
          OFFSET 19.7461 -1.48036 -6.00008
          CHANNELS 6 Xposition Yposition Zposition Zrotation Xrotation Yrotation
          JOINT RightArm
          {
            OFFSET 11.2841 0 0
            CHANNELS 6 Xposition Yposition Zposition Zrotation Xrotation Yrotation
            JOINT RightForeArm
            {
              OFFSET 33.0001 1.6e-05 0
              CHANNELS 6 Xposition Yposition Zposition Zrotation Xrotation Yrotation
              JOINT RightHand
              {
                OFFSET 25.1998 0.000123 0.000432
                CHANNELS 6 Xposition Yposition Zposition Zrotation Xrotation Yrotation
                End Site
                {
                  OFFSET 0 0 0
                }
              }
            }
          }
        }
      }
    }
  }
}
MOTION
Frames:	4
Frame Time:	0.0333333
-95.8367 85.709 -142.169 -80.7027 -29.5504 -170.073 0.103456 1.85784 10.5485 12.224 23.7382 -173.84 43.5 -4.2e-05 1e-05 -50.4971 -7.02172 -14.2415 42.3722 1.9e-05 0 67.277 1.82356 3.21749 17.3 -1.42109e-14 3e-06 21.4546 -1e-06 0.003093 0.103456 1.85782 -10.5485 -12.3023 -13.9673 -174.219 43.5 -2.7e-05 4e-06 -29.3429 13.6929 1.55721 42.3723 1.42109e-14 1e-05 85.6914 2.65234 -16.4972 17.3 -6e-06 1.7e-05 21.4546 -1.9e-05 -0.003116 6.90197 -2.60373 -3e-06 9.65104 -1.38521 -0.596347 12.5881 1e-05 8e-06 9.31461 -2.7527 -0.906832 12.3432 -1.8e-05 -5e-06 9.04396 -2.66467 -0.718037 25.8329 2.3e-05 7e-06 -0.0732602 -13.9374 7.75941 11.7666 -8e-06 -6e-06 -2.07551 -26.7678 14.3063 19.7459 -1.48035 6.0001 179.564 -10.3802 -79.3838 11.2841 1.8e-05 -2e-05 58.4331 -31.7383 81.8299 33 -1.3e-05 1.9e-05 5.74702 -54.2171 19.2534 25.2 3.2e-05 1.1e-05 12.783 -9.54996 23.8339 19.7461 -1.48036 -6.00008 -163.435 -20.9168 70.9478 11.2841 -1.42109e-14 -1e-06 -14.5145 -9.87595 -33.9687 33.0001 1.6e-05 -1e-06 -32.1556 5.68126 14.7481 25.1998 0.000123 0.000432 16.7799 -15.117 8.87912 
-93.8442 85.658 -144.376 -80.5703 -26.2993 -170.888 0.103456 1.85784 10.5485 5.25098 21.0949 -168.599 43.5 -4.2e-05 1e-05 -62.6737 -3.85293 -16.0997 42.3722 1.9e-05 0 56.2552 12.0492 4.5787 17.3 1.42109e-14 3e-06 21.4546 -1e-06 0.003093 0.103456 1.85782 -10.5485 -12.1045 -12.8036 -173.991 43.5 -2.7e-05 4e-06 -33.7664 12.8786 0.928424 42.3723 0 1e-05 87.033 3.97483 -14.8957 17.3 -6e-06 1.7e-05 21.4546 -1.9e-05 -0.003116 6.90197 -2.60373 -3e-06 9.93883 -1.30823 -0.32922 12.5881 1e-05 8e-06 9.89339 -2.54495 -0.381898 12.3432 -1.8e-05 -5e-06 9.61727 -2.41611 -0.207016 25.8329 2.3e-05 7e-06 0.232048 -14.0186 7.98291 11.7666 -8e-06 -6e-06 -3.13712 -27.0199 14.2976 19.7459 -1.48035 6.0001 -179.991 -9.75506 -78.7135 11.2841 1.8e-05 -2e-05 60.9443 -31.3541 83.9883 33 -1.3e-05 1.9e-05 5.62618 -54.7119 20.2691 25.2 3.2e-05 1.1e-05 12.689 -10.3017 24.7026 19.7461 -1.48036 -6.00008 -163.142 -20.4256 71.6921 11.2841 -1.42109e-14 -1e-06 -14.0487 -9.68992 -33.7064 33.0001 1.6e-05 -1e-06 -30.5769 4.59717 15.086 25.1998 0.000123 0.000432 17.4663 -15.6268 8.80028 
-92.2576 85.6846 -146.458 -80.7908 -23.3905 -171.651 0.103456 1.85784 10.5485 -1.83744 19.1075 -165.244 43.5 -4.2e-05 1e-05 -71.0079 -1.72448 -14.9464 42.3722 1.9e-05 -2.84217e-14 51.2182 21.6958 5.76769 17.3 -1.42109e-14 3e-06 21.4546 -1e-06 0.003093 0.103456 1.85782 -10.5485 -10.599 -12.8726 -175.112 43.5 -2.7e-05 4e-06 -34.9863 12.2004 2.46516 42.3723 0 1e-05 88.7227 3.48984 -12.3313 17.3 -6e-06 1.7e-05 21.4546 -1.9e-05 -0.003116 6.90197 -2.60373 -3e-06 10.2099 -1.44309 -0.0571737 12.5881 1e-05 8e-06 10.4444 -2.75544 0.192175 12.3432 -1.8e-05 -5e-06 10.1698 -2.58229 0.379139 25.8329 2.3e-05 7e-06 0.346841 -13.963 8.24666 11.7666 -8e-06 -6e-06 -4.64828 -27.2516 14.1376 19.7459 -1.48035 6.0001 -179.334 -9.22754 -78.2865 11.2841 1.8e-05 -2e-05 62.1855 -30.4398 85.7629 33 -1.3e-05 1.9e-05 6.77572 -55.1981 22.1286 25.2 3.2e-05 1.1e-05 12.7767 -10.7335 25.2834 19.7461 -1.48036 -6.00008 -163.466 -19.9089 71.9947 11.2841 -1.42109e-14 -1e-06 -13.6715 -11.3048 -31.8184 33.0001 1.6e-05 -1e-06 -32.8166 4.60604 14.9348 25.1998 0.000123 0.000432 17.2701 -16.0608 9.72515 
-90.7331 85.9904 -148.291 -81.6446 -20.5699 -172.551 0.103456 1.85784 10.5485 -7.4008 17.0631 -163.917 43.5 -4.2e-05 1e-05 -74.0792 -0.577724 -13.2188 42.3722 1.9e-05 2.84217e-14 56.6875 14.5679 7.98666 17.3 0 3e-06 21.4546 -1e-06 0.003093 0.103456 1.85782 -10.5485 -9.24241 -11.5262 -175.08 43.5 -2.7e-05 4e-06 -34.2938 12.0303 2.51268 42.3723 0 1e-05 89.6114 3.73831 -10.827 17.3 -6e-06 1.7e-05 21.4546 -1.9e-05 -0.003116 6.90197 -2.60373 -3e-06 10.3313 -1.58316 0.130374 12.5881 1e-05 8e-06 10.6956 -2.99475 0.595987 12.3432 -1.8e-05 -5e-06 10.4235 -2.79232 0.797119 25.8329 2.3e-05 7e-06 0.229076 -13.8448 8.04816 11.7666 -8e-06 -6e-06 -5.30695 -27.294 14.3622 19.7459 -1.48035 6.0001 -178.962 -8.26927 -78.1869 11.2841 1.8e-05 -2e-05 61.3885 -29.9696 86.043 33 -1.3e-05 1.9e-05 9.07015 -55.6082 24.3073 25.2 3.2e-05 1.1e-05 12.9655 -11.0614 25.7054 19.7461 -1.48036 -6.00008 -164.244 -19.4974 72.2769 11.2841 0 -1e-06 -12.6229 -9.80037 -31.2414 33.0001 1.6e-05 -1e-06 -34.1505 4.71203 15.5286 25.1998 0.000123 0.000432 15.6513 -15.4208 9.21628 
